<svg xmlns="http://www.w3.org/2000/svg" width="387" height="324" fill="none" viewBox="0 0 387 324">
  <mask id="a" width="325" height="324" x="26" y="0" maskUnits="userSpaceOnUse" style="mask-type:luminance">
    <path fill="#fff" d="M26.07 0h324v324h-324V0Z"/>
  </mask>
  <g mask="url(#a)">
    <path fill="#7BA1E0" d="M309.799 254.469c-9.224-4.953-19.719-9.25-31.13-12.865l-1.078 8.776c9.703 3.151 18.656 6.834 26.651 11.005-21.453 25.167-50.88 43.313-84.323 50.485 5.828-4.636 11.365-10.557 16.521-17.693a14.606 14.606 0 0 1-2.589-5.672l-.984-4.583c-11.849 18.495-25.912 29.297-40.667 31.073v-34.974c-1.338 2.245-3.219 4.172-5.562 5.531l-2.157 1.25c-.317.188-.656.333-.989.49v27.703c-17.813-2.146-34.62-17.391-47.724-43.495-4.302-8.562-8.021-17.984-11.146-28.042 5.969-1.213 12.125-2.239 18.406-3.104.229-1.146.552-2.281.995-3.37l-4.161-4.979c-6.026.87-11.943 1.88-17.693 3.068-5.625-20.938-8.734-44.339-9.068-68.714h54.328l-8.854-7.974c-.26-.234-.489-.494-.734-.75h-44.74c.334-24.234 3.412-47.51 8.979-68.359 19.125 3.953 39.943 6.182 61.412 6.448v31.922c2.036.292 4.031.812 5.948 1.62l2.76 1.161V95.724c21.469-.266 42.287-2.5 61.406-6.453 5.318 19.901 8.334 42.021 8.891 65.073l8.172-4.745c.13-.078.271-.141.401-.214-.854-21.885-3.896-42.901-8.969-62.015 18.031-4.334 34.318-10.266 47.891-17.589 18.562 24.594 29.896 54.943 30.818 87.854h-19.329c.563 2.87.407 5.855-.437 8.724h19.766c-.928 33.026-12.339 63.469-31.011 88.11ZM71.45 261.385c12.734-6.645 27.89-12.052 44.636-16.041 3.317 10.791 7.286 20.89 11.895 30.073 8.006 15.937 17.438 28.218 27.792 36.453-33.448-7.172-62.87-25.323-84.323-50.485Zm-36.568-95.026h69.511c.333 24.98 3.521 49.016 9.281 70.61-17.979 4.317-34.224 10.219-47.786 17.5-18.667-24.641-30.084-55.084-31.006-88.11Zm30.803-96.562c13.583 7.318 29.864 13.25 47.901 17.583-5.704 21.505-8.86 45.412-9.193 70.255h-69.51c.921-32.906 12.25-63.25 30.801-87.838ZM183.492 9.005V87c-20.651-.26-40.636-2.37-58.985-6.115 3.152-10.187 6.907-19.724 11.261-28.385 13.104-26.11 29.911-41.354 47.724-43.495Zm-27.719 3.125c-10.354 8.23-19.786 20.516-27.792 36.448-4.656 9.281-8.671 19.5-12.005 30.422-16.802-4.01-32-9.443-44.75-16.12 21.474-25.307 50.985-43.552 84.547-50.75ZM192.2 9.005c17.807 2.14 34.615 17.386 47.724 43.495 4.349 8.661 8.104 18.193 11.255 28.38-18.343 3.745-38.333 5.86-58.979 6.12V9.005Zm112.25 53.86c-12.745 6.682-27.943 12.114-44.739 16.125-3.334-10.917-7.344-21.13-12.006-30.412-8.005-15.932-17.437-28.219-27.786-36.448 33.552 7.193 63.062 25.438 84.531 50.735ZM187.846.01c-89.188 0-161.74 72.667-161.74 161.985 0 89.323 72.553 161.995 161.74 161.995 89.182 0 161.74-72.672 161.74-161.995C349.586 72.677 277.028.01 187.846.01Z"/>
  </g>
  <path fill="#7BA1E0" d="M184.58 202.026c.703-.521 1.396-1.036 2.089-1.542 0 0 2.297-1.666 2.854-2.067l2.677-2.683v-7.057l-8.708-7.844v22.016l1.088-.823Z"/>
  <path fill="#E28D9F" d="M142.882 246.578c-24.078 10.37-46.833 18.677-67.041 24.38-43 12.125-62.39 8.938-66.198 1.907-3.625-6.698 3.495-23.756 34.349-51.552l-5.828-6.49c-31.151 28.073-43.328 49-36.177 62.203 4.041 7.458 13.682 10.776 27.317 10.776 27.282 0 70.552-13.292 116.87-33.219a18.44 18.44 0 0 1-2.828-5.833 17.69 17.69 0 0 1-.464-2.172Zm241.86-177.489c-7.099-13.115-31.006-14.375-71.047-3.74l2.234 8.427c39.61-10.515 57.563-7.167 61.162-.526 3.802 7.031-4.099 25.047-37.703 54.537-7.256 6.364-15.292 12.89-23.943 19.489.14.125.281.25.416.375.329.302.599.563.849.828.157.156.303.318.448.479.328.37.667.782.985 1.209l.281.385c.339.474.656.969.953 1.474.427.75.797 1.526 1.115 2.323 45.062-34.234 74.125-67.031 64.25-85.26Z"/>
  <path fill="#fff" d="m231.075 220.333 14.125 65.719c.443 2.031 2.729 3.047 4.531 2.005l7.099-4.119a12.38 12.38 0 0 0 6.068-9.193l9.63-78.396 18.86-10.943c.474-.276.937-.562 1.395-.849.105-.067.204-.135.308-.198.442-.286.885-.583 1.317-.885.079-.052.152-.109.23-.161.385-.271.76-.552 1.135-.839.083-.068.177-.13.26-.198.407-.318.808-.64 1.204-.969.104-.088.213-.177.312-.265.359-.302.708-.61 1.052-.927.057-.047.115-.099.172-.151.37-.339.734-.693 1.094-1.047l.338-.339c.349-.349.688-.708 1.021-1.073.094-.099.182-.198.271-.297.271-.296.536-.599.797-.906.104-.125.213-.25.318-.375.307-.37.604-.739.901-1.12.104-.135.208-.276.317-.416.235-.313.469-.625.693-.948.083-.115.167-.224.25-.344.287-.406.563-.823.833-1.245.12-.177.23-.359.344-.541.182-.287.354-.573.526-.865l.328-.552c.209-.37.417-.745.615-1.12.057-.099.109-.198.161-.297a38.425 38.425 0 0 0 .927-1.89c.167-.36.329-.724.485-1.089.062-.156.13-.312.198-.463.208-.511.411-1.021.599-1.537a6.665 6.665 0 0 0-.834-6.213 6.488 6.488 0 0 0-.474-.599c-.036-.037-.067-.073-.104-.11a6.85 6.85 0 0 0-.333-.328c-.057-.052-.109-.104-.167-.151a5.107 5.107 0 0 0-.427-.338 4.806 4.806 0 0 0-.219-.152c-.104-.067-.208-.135-.312-.197-.073-.042-.151-.094-.229-.136a9.804 9.804 0 0 0-.516-.25 5.522 5.522 0 0 0-.26-.099 5.14 5.14 0 0 0-.401-.14 2.577 2.577 0 0 0-.23-.073 8.56 8.56 0 0 0-.661-.151 42.068 42.068 0 0 0-28.13 5.099l-2.151 1.25-10.12 5.869-6.583 3.823-72.698-30.62a12.354 12.354 0 0 0-10.985.704l-7.099 4.119c-1.796 1.042-2.057 3.537-.51 4.933l49.896 44.958a301.436 301.436 0 0 0-6.646 4.156c-.005 0-.005 0-.01.005a288.528 288.528 0 0 0-4.141 2.698c-.042.026-.078.052-.12.079a286.58 286.58 0 0 0-4.005 2.708c-.063.042-.125.078-.182.125a264.406 264.406 0 0 0-6.464 4.568c-.385.276-.766.552-1.146.833-.672.495-1.343.984-2.01 1.484a405.592 405.592 0 0 0-3.276 2.469c-1.125.865-2.25 1.729-3.365 2.609l-12.463 9.818-24.87-15.266a3.98 3.98 0 0 0-4.073-.046l-2.151 1.244a1.898 1.898 0 0 0-.688 2.584c.053.093.115.182.188.265l18.198 21.771-1.891 1.485c-2.192 1.729-3.364 4.614-2.609 7.307 1.151 4.078 5.448 6.026 9.12 4.542l2.505-1.016 9.807 26.635a1.88 1.88 0 0 0 2.714.979l2.151-1.244a3.993 3.993 0 0 0 1.984-3.568l-.854-29.198 14.703-5.948a312.37 312.37 0 0 0 34.427-16.443Z"/>
</svg>
