<svg width="387" height="324" viewBox="0 0 387 324" fill="none" xmlns="http://www.w3.org/2000/svg">
<mask id="mask0_139_204" style="mask-type:luminance" maskUnits="userSpaceOnUse" x="26" y="0" width="325" height="324">
<path d="M26.0698 0H350.07V324H26.0698V0Z" fill="white"/>
</mask>
<g mask="url(#mask0_139_204)">
<path d="M309.799 254.469C300.575 249.515 290.08 245.219 278.669 241.604L277.591 250.38C287.294 253.531 296.247 257.213 304.242 261.385C282.789 286.552 253.361 304.698 219.919 311.87C225.747 307.234 231.283 301.312 236.44 294.177C235.205 292.526 234.304 290.604 233.851 288.505L232.867 283.922C221.018 302.417 206.955 313.219 192.2 314.995V280.021C190.861 282.265 188.981 284.193 186.637 285.552L184.481 286.802C184.163 286.989 183.825 287.135 183.492 287.292V314.995C165.679 312.849 148.872 297.604 135.768 271.5C131.466 262.937 127.747 253.515 124.622 243.458C130.591 242.245 136.747 241.219 143.028 240.354C143.257 239.208 143.58 238.073 144.023 236.984L139.861 232.005C133.835 232.875 127.919 233.885 122.169 235.073C116.544 214.135 113.434 190.734 113.101 166.359H167.429L158.575 158.385C158.315 158.151 158.085 157.89 157.841 157.635H113.101C113.434 133.401 116.512 110.125 122.08 89.2759C141.205 93.229 162.023 95.4582 183.492 95.7238V127.646C185.528 127.937 187.523 128.458 189.44 129.265L192.2 130.427V95.7238C213.669 95.4582 234.486 93.2238 253.606 89.2707C258.924 109.172 261.94 131.292 262.497 154.344L270.669 149.599C270.799 149.521 270.94 149.458 271.07 149.385C270.216 127.5 267.174 106.484 262.101 87.3696C280.132 83.0363 296.419 77.104 309.992 69.7811C328.554 94.3748 339.887 124.724 340.809 157.635H321.481C322.044 160.505 321.887 163.489 321.044 166.359H340.809C339.882 199.385 328.471 229.828 309.799 254.469ZM71.45 261.385C84.1843 254.739 99.3406 249.333 116.085 245.344C119.403 256.135 123.372 266.234 127.981 275.417C135.986 291.354 145.419 303.635 155.773 311.87C122.325 304.698 92.9031 286.547 71.45 261.385ZM34.8822 166.359H104.393C104.726 191.338 107.913 215.375 113.674 236.969C95.6947 241.286 79.45 247.187 65.8875 254.469C47.2208 229.828 35.8041 199.385 34.8822 166.359ZM65.6843 69.7967C79.2677 77.1144 95.5489 83.0467 113.585 87.38C107.882 108.885 104.726 132.792 104.393 157.635H34.8822C35.8041 124.729 47.1322 94.3853 65.6843 69.7967ZM183.492 9.00505V86.9998C162.841 86.7394 142.856 84.63 124.507 80.8853C127.658 70.6978 131.413 61.1613 135.768 52.4998C148.872 26.3905 165.679 11.1457 183.492 9.00505ZM155.773 12.13C145.419 20.3592 135.986 32.6457 127.981 48.578C123.325 57.8592 119.309 68.078 115.976 78.9998C99.1739 74.9894 83.976 69.5571 71.226 62.88C92.7 37.5728 122.21 19.328 155.773 12.13ZM192.2 9.00505C210.007 11.1457 226.815 26.3905 239.924 52.4998C244.273 61.1613 248.028 70.6925 251.179 80.88C232.835 84.6248 212.846 86.7394 192.2 86.9998V9.00505ZM304.45 62.8644C291.705 69.5467 276.507 74.979 259.71 78.9894C256.377 68.0728 252.367 57.8592 247.705 48.578C239.7 32.6457 230.268 20.3592 219.919 12.13C253.471 19.3228 282.981 37.5675 304.45 62.8644ZM187.846 0.0102539C98.6583 0.0102539 26.1062 72.6769 26.1062 161.995C26.1062 251.318 98.6583 323.989 187.846 323.989C277.028 323.989 349.585 251.318 349.585 161.995C349.585 72.6769 277.028 0.0102539 187.846 0.0102539Z" fill="#5CA5EF"/>
</g>
<path d="M184.58 202.026C185.283 201.505 185.976 200.99 186.669 200.485C186.669 200.485 188.966 198.818 189.523 198.417L192.2 195.735V188.677L183.492 180.833V202.849L184.58 202.026Z" fill="#689DDF"/>
<path d="M142.882 246.578C118.804 256.948 96.0491 265.255 75.8407 270.958C32.8407 283.083 13.4501 279.896 9.64281 272.864C6.01781 266.167 13.1376 249.109 43.9918 221.312L38.1636 214.823C7.0126 242.896 -5.16448 263.823 1.98656 277.026C6.02823 284.484 15.6689 287.802 29.3043 287.802C56.5855 287.802 99.8564 274.51 146.174 254.583C144.924 252.854 143.945 250.89 143.346 248.75C143.143 248.031 142.992 247.307 142.882 246.578Z" fill="url(#paint0_linear_139_204)"/>
<path d="M384.742 69.0886C377.643 55.974 353.736 54.7136 313.695 65.349L315.929 73.7761C355.539 63.2605 373.492 66.6094 377.091 73.25C380.893 80.2813 372.992 98.2969 339.388 127.787C332.132 134.151 324.096 140.677 315.445 147.276C315.585 147.401 315.726 147.526 315.861 147.651C316.19 147.953 316.46 148.214 316.71 148.479C316.867 148.635 317.013 148.797 317.158 148.958C317.486 149.328 317.825 149.74 318.143 150.167L318.424 150.552C318.763 151.026 319.08 151.521 319.377 152.026C319.804 152.776 320.174 153.552 320.492 154.349C365.554 120.115 394.617 87.3178 384.742 69.0886Z" fill="url(#paint1_linear_139_204)"/>
<path d="M231.075 220.333L245.2 286.052C245.643 288.083 247.929 289.099 249.731 288.057L256.83 283.937C260.179 281.995 262.424 278.588 262.898 274.745L272.528 196.349L291.388 185.406C291.862 185.13 292.325 184.844 292.783 184.557C292.888 184.489 292.987 184.422 293.091 184.359C293.533 184.073 293.976 183.776 294.408 183.474C294.487 183.422 294.56 183.364 294.638 183.312C295.023 183.042 295.398 182.76 295.773 182.474C295.856 182.406 295.95 182.344 296.033 182.276C296.44 181.958 296.841 181.635 297.237 181.307C297.341 181.219 297.45 181.13 297.549 181.042C297.908 180.739 298.257 180.432 298.601 180.114C298.658 180.068 298.716 180.015 298.773 179.963C299.143 179.625 299.507 179.271 299.867 178.917C299.981 178.802 300.091 178.693 300.205 178.578C300.554 178.229 300.893 177.87 301.226 177.505C301.32 177.406 301.408 177.307 301.497 177.208C301.768 176.911 302.033 176.609 302.294 176.302C302.398 176.177 302.507 176.052 302.612 175.927C302.919 175.557 303.216 175.187 303.513 174.807C303.617 174.672 303.721 174.531 303.83 174.39C304.065 174.078 304.299 173.765 304.523 173.443C304.606 173.328 304.69 173.219 304.773 173.099C305.06 172.693 305.336 172.276 305.606 171.854C305.726 171.677 305.836 171.495 305.95 171.312C306.132 171.026 306.304 170.739 306.476 170.448C306.586 170.26 306.695 170.078 306.804 169.896C307.013 169.526 307.221 169.151 307.419 168.776C307.476 168.677 307.528 168.578 307.58 168.479C307.825 168.015 308.06 167.536 308.289 167.057C308.362 166.901 308.435 166.745 308.507 166.588C308.674 166.229 308.836 165.864 308.992 165.5C309.054 165.344 309.122 165.187 309.19 165.036C309.398 164.526 309.601 164.015 309.789 163.5C310.518 161.531 310.257 159.469 309.299 157.818C309.195 157.635 309.08 157.458 308.955 157.286C308.924 157.245 308.893 157.203 308.862 157.156C308.742 156.995 308.617 156.838 308.481 156.687C308.445 156.651 308.414 156.614 308.377 156.578C308.268 156.463 308.158 156.354 308.044 156.25C307.987 156.198 307.935 156.146 307.877 156.099C307.742 155.979 307.596 155.864 307.45 155.76C307.377 155.708 307.304 155.656 307.231 155.609C307.127 155.542 307.023 155.474 306.919 155.411C306.846 155.37 306.768 155.318 306.69 155.276C306.523 155.187 306.346 155.104 306.174 155.026C306.086 154.989 306.002 154.958 305.914 154.927C305.783 154.875 305.648 154.828 305.513 154.786C305.44 154.76 305.362 154.734 305.283 154.713C305.065 154.656 304.846 154.604 304.622 154.562C294.94 152.927 284.992 154.729 276.492 159.661L274.341 160.911L264.221 166.781L257.638 170.604L184.94 139.984C181.372 138.484 177.304 138.745 173.955 140.687L166.856 144.807C165.06 145.849 164.799 148.344 166.346 149.739L216.242 194.698C214.007 196.052 211.794 197.443 209.596 198.854C209.591 198.854 209.591 198.854 209.586 198.859C208.195 199.75 206.815 200.646 205.445 201.557C205.403 201.583 205.367 201.609 205.325 201.635C203.981 202.526 202.648 203.432 201.32 204.344C201.257 204.385 201.195 204.422 201.138 204.469C199.768 205.406 198.408 206.359 197.054 207.323C196.257 207.89 195.466 208.458 194.674 209.036C194.289 209.312 193.908 209.588 193.528 209.87C192.856 210.364 192.185 210.854 191.518 211.354C190.929 211.792 190.341 212.234 189.752 212.677C189.247 213.057 188.747 213.437 188.242 213.823C187.117 214.687 185.992 215.552 184.877 216.432L172.414 226.25L147.544 210.984C146.299 210.224 144.737 210.203 143.471 210.937L141.32 212.182C140.403 212.719 140.122 213.88 140.632 214.765C140.685 214.859 140.747 214.948 140.82 215.031L159.018 236.802L157.127 238.286C154.935 240.015 153.763 242.901 154.518 245.594C155.669 249.672 159.966 251.62 163.638 250.135L166.143 249.12L175.95 275.755C175.987 275.859 176.033 275.958 176.086 276.052C176.601 276.937 177.747 277.271 178.664 276.734L180.815 275.489C182.08 274.755 182.841 273.385 182.799 271.922L181.945 242.724L196.648 236.776C208.45 232 219.945 226.51 231.075 220.333Z" fill="white"/>
<defs>
<linearGradient id="paint0_linear_139_204" x1="73.087" y1="214.823" x2="73.087" y2="287.802" gradientUnits="userSpaceOnUse">
<stop stop-color="#ED6337"/>
<stop offset="1" stop-color="#F8CEBF"/>
</linearGradient>
<linearGradient id="paint1_linear_139_204" x1="350.182" y1="58.2139" x2="350.182" y2="154.349" gradientUnits="userSpaceOnUse">
<stop stop-color="#ED6337"/>
<stop offset="1" stop-color="#F8CEBF"/>
</linearGradient>
</defs>
</svg>
